<svg xmlns="http://www.w3.org/2000/svg" width="25.838" height="17.485" viewBox="0 0 25.838 17.485"><defs><style>.a{fill:#e2a63b;}.b{fill:#f4b844;}.c{fill:#fedb41;}</style></defs><g transform="translate(0 -78.624)"><path class="a" d="M274.674,317.919v2.942c0,1-2.664,1.832-5.939,1.832s-5.883-.8-5.883-1.8v-.333l-.056-2.331h.028c.444.86,2.886,1.526,5.828,1.526s5.967-.833,5.967-1.832h.056Z" transform="translate(-248.836 -226.583)"/><path class="b" d="M157.756,112.074v2.914H157.7c0,1.027-2.747,1.832-5.995,1.832a14.242,14.242,0,0,1-3.747-.416l-.056.056a6.484,6.484,0,0,0-2.054-1.138v-.056l-.083-3.081c.194.944,2.775,1.693,5.911,1.693s6.022-.8,6.022-1.8Z" transform="translate(-138.024 -31.673)"/><path class="c" d="M157.757,80.457h0c0,1-2.747,1.8-6.022,1.8s-5.745-.749-5.939-1.693c0-.028-.028-.083-.028-.111,0-1,2.664-1.832,5.967-1.832C155.037,78.6,157.757,79.43,157.757,80.457Z" transform="translate(-138.025 0)"/><path class="b" d="M261.834,266.776h0l-.028-.611-.056-2.5c.194.944,2.775,1.693,5.911,1.693s5.911-.8,5.994-1.776h.028v2.886h-.055c0,1-2.692,1.832-5.967,1.832S262.278,267.636,261.834,266.776Z" transform="translate(-247.847 -175.135)"/><path class="a" d="M188.608,313.158a5.955,5.955,0,0,0,1.637-2.553h.139c.611.056,1.221.083,1.887.083h.278v.611l.056,2.331H192.3a14.381,14.381,0,0,1-3.608-.388Z" transform="translate(-178.589 -219.658)"/><path class="b" d="M222.258,254.542v.139l.055,2.581h-.278c-.694,0-1.332-.028-1.943-.083h-.139a5.7,5.7,0,0,0,.277-1.8,5.618,5.618,0,0,0-.139-1.193h.139c.583.056,1.166.083,1.8.083l.25.139A.3.3,0,0,0,222.258,254.542Z" transform="translate(-208.271 -166.231)"/><path class="a" d="M186.052,168.346a14.245,14.245,0,0,0,3.747.416c3.247,0,5.994-.8,5.994-1.832h.056v3.275c-3.025,0-5.495.722-5.8,1.637l-.25-.139q-.916,0-1.748-.083h-.139A5.6,5.6,0,0,0,186,168.374Z" transform="translate(-176.117 -83.616)"/><g transform="translate(0 83.259)"><path class="c" d="M11.85,170.629h0a6.074,6.074,0,0,0-1.97-3.3,5.273,5.273,0,0,0-2.109-1.166,5.361,5.361,0,0,0-1.748-.277,5.967,5.967,0,1,0-.111,11.933,6.088,6.088,0,0,0,4.107-1.582,6.027,6.027,0,0,0,1.665-2.636,5.527,5.527,0,0,0,.277-1.776C11.961,171.434,11.85,171.017,11.85,170.629Z" transform="translate(0 -165.883)"/><path class="c" d="M273.657,230.385v.056c-.083.971-2.775,1.776-5.994,1.776s-5.717-.749-5.911-1.693v-.139a.352.352,0,0,1,.028-.167c.305-.916,2.775-1.637,5.8-1.637h.083C270.937,228.581,273.657,229.386,273.657,230.385Z" transform="translate(-247.847 -225.251)"/></g><path class="a" d="M77.247,199.3a.916.916,0,1,1,.916-.916.555.555,0,1,0,1.11,0,2.048,2.048,0,0,0-1.471-1.943v-.222a.555.555,0,1,0-1.11,0v.222a1.938,1.938,0,0,0-1.471,1.943,2.037,2.037,0,0,0,2.026,2.026.916.916,0,0,1,0,1.832h0a.924.924,0,0,1-.916-.916.555.555,0,0,0-1.11,0,2.023,2.023,0,0,0,1.471,1.943v.444a.555.555,0,1,0,1.11,0v-.444a2,2,0,0,0,1.36-2.525A2.024,2.024,0,0,0,77.247,199.3Z" transform="translate(-71.224 -110.823)"/></g></svg>