<svg xmlns="http://www.w3.org/2000/svg" xmlns:xlink="http://www.w3.org/1999/xlink" width="49" height="49" viewBox="0 0 49 49">
  <defs>
    <filter id="Ellipse_75" x="0" y="0" width="49" height="49" filterUnits="userSpaceOnUse">
      <feOffset dy="3" input="SourceAlpha"/>
      <feGaussianBlur stdDeviation="1.5" result="blur"/>
      <feFlood flood-opacity="0.161"/>
      <feComposite operator="in" in2="blur"/>
      <feComposite in="SourceGraphic"/>
    </filter>
  </defs>
  <g id="تحويل" transform="translate(-36.5 -184.153)">
    <g transform="matrix(1, 0, 0, 1, 36.5, 184.15)" filter="url(#Ellipse_75)">
      <g id="Ellipse_75-2" data-name="Ellipse 75" transform="translate(4.5 1.5)" fill="#fff" stroke="#ffd64d" stroke-width="1">
        <circle cx="20" cy="20" r="20" stroke="none"/>
        <circle cx="20" cy="20" r="19.5" fill="none"/>
      </g>
    </g>
    <g id="Group_359" data-name="Group 359" transform="translate(48.084 197.146)">
      <path id="ic_import_export_24px" d="M5.37,0,0,5.7H4.027v10.02l.091.269.141.153.242.274.357.172.5.106L5.8,16.59l.39-.172.337-.274.129-.153.058-.269V5.7h4.027Z" transform="translate(24.959 0) rotate(90)" fill="#47afc9" stroke="#47afc9" stroke-width="1"/>
      <path id="ic_import_export_24px-2" data-name="ic_import_export_24px" d="M5.37,0,0,5.7H4.027v10.02l.091.269.141.153.242.274.357.172.5.106L5.8,16.59l.39-.172.337-.274.129-.153.058-.269V5.7h4.027Z" transform="translate(0 17.5) rotate(-90)" fill="#47afc9" stroke="#47afc9" stroke-width="1"/>
    </g>
  </g>
</svg>
