<svg xmlns="http://www.w3.org/2000/svg" width="45" height="49" viewBox="0 0 45 49"><g transform="translate(-5.411)"><g transform="translate(5.411)"><path d="M123.152,259.355a1.114,1.114,0,0,0-1.114-1.113h-3.889a1.114,1.114,0,0,0-1.114,1.113v3.888a1.114,1.114,0,0,0,1.114,1.114h3.889a1.114,1.114,0,0,0,1.114-1.114v-3.888Z" transform="translate(-106.614 -232.327)" fill="#47afc9"/><path d="M219.786,259.355a1.113,1.113,0,0,0-1.113-1.113h-3.889a1.114,1.114,0,0,0-1.114,1.113v3.888a1.114,1.114,0,0,0,1.114,1.114h3.889a1.114,1.114,0,0,0,1.113-1.114Z" transform="translate(-194.228 -232.327)" fill="#47afc9"/><path d="M316.415,259.355a1.114,1.114,0,0,0-1.114-1.113h-3.889a1.114,1.114,0,0,0-1.114,1.113v3.888a1.114,1.114,0,0,0,1.114,1.114H315.3a1.114,1.114,0,0,0,1.114-1.114Z" transform="translate(-281.835 -232.327)" fill="#47afc9"/><path d="M123.152,355.989a1.114,1.114,0,0,0-1.114-1.114h-3.889a1.113,1.113,0,0,0-1.114,1.114v3.887a1.114,1.114,0,0,0,1.114,1.114h3.889a1.114,1.114,0,0,0,1.114-1.114v-3.887Z" transform="translate(-106.614 -319.279)" fill="#47afc9"/><path d="M219.786,355.989a1.113,1.113,0,0,0-1.113-1.114h-3.889a1.113,1.113,0,0,0-1.114,1.114v3.887a1.114,1.114,0,0,0,1.114,1.114h3.889a1.114,1.114,0,0,0,1.113-1.114Z" transform="translate(-194.228 -319.279)" fill="#47afc9"/><path d="M316.415,355.989a1.113,1.113,0,0,0-1.113-1.114h-3.889a1.114,1.114,0,0,0-1.114,1.114v3.887a1.114,1.114,0,0,0,1.114,1.114H315.3a1.114,1.114,0,0,0,1.113-1.114v-3.887Z" transform="translate(-281.835 -319.279)" fill="#47afc9"/><path d="M46.406,54.163v5.926a4.7,4.7,0,0,1-4.557,4.837H38.974a4.721,4.721,0,0,1-4.584-4.837V54.142H21.432v5.947a4.721,4.721,0,0,1-4.584,4.837H13.973a4.7,4.7,0,0,1-4.557-4.837V54.163a4.293,4.293,0,0,0-4.006,4.388V93.28A4.287,4.287,0,0,0,9.536,97.7h36.75a4.292,4.292,0,0,0,4.125-4.417V58.551A4.293,4.293,0,0,0,46.406,54.163ZM45.07,91.117a1.844,1.844,0,0,1-1.783,1.9H12.456a1.844,1.844,0,0,1-1.783-1.9V73.178a1.844,1.844,0,0,1,1.783-1.9H43.287a1.844,1.844,0,0,1,1.783,1.9V91.117Z" transform="translate(-5.411 -48.697)" fill="#47afc9"/><path d="M81.217,13.069h3.033A1.666,1.666,0,0,0,85.918,11.4V1.667A1.667,1.667,0,0,0,84.251,0H81.217A1.667,1.667,0,0,0,79.55,1.667V11.4A1.666,1.666,0,0,0,81.217,13.069Z" transform="translate(-72.632)" fill="#47afc9"/><path d="M346.125,13.069h3.033a1.666,1.666,0,0,0,1.667-1.666V1.667A1.667,1.667,0,0,0,349.159,0h-3.033a1.667,1.667,0,0,0-1.667,1.667V11.4A1.666,1.666,0,0,0,346.125,13.069Z" transform="translate(-312.821)" fill="#47afc9"/></g></g></svg>