<svg xmlns="http://www.w3.org/2000/svg" width="48" height="48" viewBox="0 0 48 48"><g transform="translate(0 0)"><path d="M40.971,7.029A24,24,0,0,0,7.029,40.971,24,24,0,0,0,40.971,7.029ZM24,43.289A19.311,19.311,0,0,1,4.711,24c0-.017,0-.035,0-.052s0-.009,0-.013,0-.015,0-.022a19.31,19.31,0,0,1,19.026-19.2c.022,0,.044,0,.066,0l.039,0,.157,0a19.289,19.289,0,1,1,0,38.578Z" transform="translate(0 0)" fill="#47afc9"/></g><g transform="translate(8.153 8.141)"><path d="M111.155,98.007a1.373,1.373,0,0,1,0-2.746h1.655A15.929,15.929,0,0,0,98.173,81.029V82.47a1.373,1.373,0,1,1-2.746,0V81.062A15.929,15.929,0,0,0,81.153,95.451h1.482a1.373,1.373,0,1,1,0,2.746H81.142a15.928,15.928,0,0,0,14.475,14.532v-1.74a1.373,1.373,0,1,1,2.746,0v1.74a15.927,15.927,0,0,0,14.489-14.722Zm-8.607-4.736-4.587,4.587a1.373,1.373,0,0,1-1.942,0l-7.984-7.984a1.373,1.373,0,0,1,1.942-1.942l7.013,7.013,3.616-3.616a1.373,1.373,0,1,1,1.941,1.942Z" transform="translate(-81.142 -81.029)" fill="#47afc9"/></g></svg>