<svg xmlns="http://www.w3.org/2000/svg" width="15.243" height="18.761" viewBox="0 0 15.243 18.761">
  <g id="trash" transform="translate(-48)">
    <path id="Path_498" data-name="Path 498" d="M61.777,2.345H58.553V1.759A1.759,1.759,0,0,0,56.794,0H54.449A1.759,1.759,0,0,0,52.69,1.759v.586H49.466A1.466,1.466,0,0,0,48,3.811V4.983a.586.586,0,0,0,.586.586H62.657a.586.586,0,0,0,.586-.586V3.811A1.466,1.466,0,0,0,61.777,2.345Zm-7.915-.586a.587.587,0,0,1,.586-.586h2.345a.587.587,0,0,1,.586.586v.586H53.863Z" transform="translate(0)" fill="#47afc9"/>
    <path id="Path_499" data-name="Path 499" d="M73.547,184a.183.183,0,0,0-.183.192l.484,10.151a1.757,1.757,0,0,0,1.757,1.675h8.9a1.757,1.757,0,0,0,1.757-1.675l.484-10.151a.183.183,0,0,0-.183-.192Zm8.854,1.466a.586.586,0,0,1,1.173,0v7.622a.586.586,0,1,1-1.173,0Zm-2.931,0a.586.586,0,0,1,1.173,0v7.622a.586.586,0,1,1-1.173,0Zm-2.931,0a.586.586,0,0,1,1.173,0v7.622a.586.586,0,1,1-1.173,0Z" transform="translate(-24.435 -177.258)" fill="#47afc9"/>
  </g>
</svg>
