<svg xmlns="http://www.w3.org/2000/svg" xmlns:xlink="http://www.w3.org/1999/xlink" width="117.687" height="117.687" viewBox="0 0 117.687 117.687">
  <defs>
    <filter id="Ellipse_40" x="0" y="0" width="117.687" height="117.687" filterUnits="userSpaceOnUse">
      <feOffset dy="15" input="SourceAlpha"/>
      <feGaussianBlur stdDeviation="7.5" result="blur"/>
      <feFlood flood-opacity="0.161"/>
      <feComposite operator="in" in2="blur"/>
      <feComposite in="SourceGraphic"/>
    </filter>
    <filter id="Rectangle_101" x="31.616" y="8.13" width="65.242" height="63.902" filterUnits="userSpaceOnUse">
      <feOffset dy="3" input="SourceAlpha"/>
      <feGaussianBlur stdDeviation="3" result="blur-2"/>
      <feFlood flood-opacity="0.161"/>
      <feComposite operator="in" in2="blur-2"/>
      <feComposite in="SourceGraphic"/>
    </filter>
    <filter id="Line_16" x="55.864" y="30.379" width="32.065" height="32.929" filterUnits="userSpaceOnUse">
      <feOffset dy="3" input="SourceAlpha"/>
      <feGaussianBlur stdDeviation="3" result="blur-3"/>
      <feFlood flood-opacity="0.161"/>
      <feComposite operator="in" in2="blur-3"/>
      <feComposite in="SourceGraphic"/>
    </filter>
    <filter id="Line_17" x="51.987" y="26.502" width="32.065" height="32.929" filterUnits="userSpaceOnUse">
      <feOffset dy="3" input="SourceAlpha"/>
      <feGaussianBlur stdDeviation="3" result="blur-4"/>
      <feFlood flood-opacity="0.161"/>
      <feComposite operator="in" in2="blur-4"/>
      <feComposite in="SourceGraphic"/>
    </filter>
  </defs>
  <g id="Group_59" data-name="Group 59" transform="translate(-2.813 -353.5)">
    <g transform="matrix(1, 0, 0, 1, 2.81, 353.5)" filter="url(#Ellipse_40)">
      <circle id="Ellipse_40-2" data-name="Ellipse 40" cx="36.344" cy="36.344" r="36.344" transform="translate(22.5 7.5)" fill="#ffd64d"/>
    </g>
    <g transform="matrix(1, 0, 0, 1, 2.81, 353.5)" filter="url(#Rectangle_101)">
      <g id="Rectangle_101-2" data-name="Rectangle 101" transform="translate(40.62 28.31) rotate(-47)" fill="none" stroke="rgba(56,102,148,0.95)" stroke-width="2">
        <rect width="19.383" height="46.52" rx="9.692" stroke="none"/>
        <rect x="1" y="1" width="17.383" height="44.52" rx="8.692" fill="none"/>
      </g>
    </g>
    <g transform="matrix(1, 0, 0, 1, 2.81, 353.5)" filter="url(#Line_16)">
      <line id="Line_16-2" data-name="Line 16" x1="12.599" y2="13.568" transform="translate(65.6 37.06)" fill="none" stroke="rgba(56,102,148,0.95)" stroke-width="2"/>
    </g>
    <g transform="matrix(1, 0, 0, 1, 2.81, 353.5)" filter="url(#Line_17)">
      <line id="Line_17-2" data-name="Line 17" x1="12.599" y2="13.568" transform="translate(61.72 33.18)" fill="none" stroke="rgba(56,102,148,0.95)" stroke-width="2"/>
    </g>
    <path id="ic_update_24px" d="M25.414,11.866H16.971l3.412-3.512A8.765,8.765,0,0,0,8.08,8.23a8.561,8.561,0,0,0,0,12.191,8.741,8.741,0,0,0,12.3,0,8.11,8.11,0,0,0,2.54-6.089h2.49a11.631,11.631,0,0,1-3.287,7.833,11.274,11.274,0,0,1-15.839,0A11.008,11.008,0,0,1,6.262,6.5a11.191,11.191,0,0,1,15.752,0l3.4-3.5ZM14.83,9.226v5.292l4.358,2.59-.9,1.507-5.33-3.163V9.226Z" transform="translate(32.792 396.586)" fill="rgba(56,102,148,0.95)"/>
  </g>
</svg>
