<svg xmlns="http://www.w3.org/2000/svg" xmlns:xlink="http://www.w3.org/1999/xlink" width="105" height="105" viewBox="0 0 105 105">
  <defs>
    <filter id="Ellipse_54" x="0" y="0" width="105" height="105" filterUnits="userSpaceOnUse">
      <feOffset dy="15" input="SourceAlpha"/>
      <feGaussianBlur stdDeviation="5" result="blur"/>
      <feFlood flood-opacity="0.161"/>
      <feComposite operator="in" in2="blur"/>
      <feComposite in="SourceGraphic"/>
    </filter>
  </defs>
  <g id="Group_76" data-name="Group 76" transform="translate(-1326 -1217)">
    <g id="Group_75" data-name="Group 75" transform="translate(66 4)">
      <g transform="matrix(1, 0, 0, 1, 1260, 1213)" filter="url(#Ellipse_54)">
        <circle id="Ellipse_54-2" data-name="Ellipse 54" cx="37.5" cy="37.5" r="37.5" transform="translate(15)" fill="#ffd64d"/>
      </g>
      <g id="Path_29" data-name="Path 29" transform="translate(1290.097 1221.637)" fill="none">
        <path d="M5,0H39.806a5,5,0,0,1,5,5V52.363a5,5,0,0,1-5,5H5a5,5,0,0,1-5-5V5A5,5,0,0,1,5,0Z" stroke="none"/>
        <path d="M 4.999996185302734 0.9999923706054688 C 2.794387817382813 0.9999923706054688 0.9999961853027344 2.794384002685547 0.9999961853027344 4.999992370605469 L 0.9999961853027344 52.36330413818359 C 0.9999961853027344 54.56891250610352 2.794387817382813 56.36330413818359 4.999996185302734 56.36330413818359 L 39.80591583251953 56.36330413818359 C 42.01151657104492 56.36330413818359 43.80590438842773 54.56891250610352 43.80590438842773 52.36330413818359 L 43.80590438842773 4.999992370605469 C 43.80590438842773 2.794384002685547 42.01151657104492 0.9999923706054688 39.80591583251953 0.9999923706054688 L 4.999996185302734 0.9999923706054688 M 4.999996185302734 -7.62939453125e-06 L 39.80591583251953 -7.62939453125e-06 C 42.56733703613281 -7.62939453125e-06 44.80590438842773 2.238574981689453 44.80590438842773 4.999992370605469 L 44.80590438842773 52.36330413818359 C 44.80590438842773 55.12473297119141 42.56733703613281 57.36330413818359 39.80591583251953 57.36330413818359 L 4.999996185302734 57.36330413818359 C 2.238574981689453 57.36330413818359 -3.814697265625e-06 55.12473297119141 -3.814697265625e-06 52.36330413818359 L -3.814697265625e-06 4.999992370605469 C -3.814697265625e-06 2.238574981689453 2.238574981689453 -7.62939453125e-06 4.999996185302734 -7.62939453125e-06 Z" stroke="none" fill="rgba(56,102,148,0.95)"/>
      </g>
      <g id="Path_33" data-name="Path 33" transform="translate(1298.341 1253.896)" fill="rgba(56,102,148,0.95)">
        <path d="M0,0H3.347V21.957H0Z" stroke="none"/>
        <path d="M 1.000004053115845 1.000003814697266 L 1.000004053115845 20.95728302001953 L 2.346864223480225 20.95728302001953 L 2.346864223480225 1.000003814697266 L 1.000004053115845 1.000003814697266 M 4.053115844726563e-06 3.814697265625e-06 L 3.346864223480225 3.814697265625e-06 L 3.346864223480225 21.95728302001953 L 4.053115844726563e-06 21.95728302001953 L 4.053115844726563e-06 3.814697265625e-06 Z" stroke="none" fill="rgba(56,102,148,0.95)"/>
      </g>
      <g id="Path_32" data-name="Path 32" transform="translate(1303.919 1251.665)" fill="rgba(56,102,148,0.95)">
        <path d="M0,0H3.347V24.189H0Z" stroke="none"/>
        <path d="M 1.000004053115845 0.9999961853027344 L 1.000004053115845 23.18853569030762 L 2.346864223480225 23.18853569030762 L 2.346864223480225 0.9999961853027344 L 1.000004053115845 0.9999961853027344 M 4.053115844726563e-06 -3.814697265625e-06 L 3.346864223480225 -3.814697265625e-06 L 3.346864223480225 24.18853569030762 L 4.053115844726563e-06 24.18853569030762 L 4.053115844726563e-06 -3.814697265625e-06 Z" stroke="none" fill="rgba(56,102,148,0.95)"/>
      </g>
      <g id="Path_31" data-name="Path 31" transform="translate(1309.497 1255.012)" fill="rgba(56,102,148,0.95)">
        <path d="M0,0H3.347V20.842H0Z" stroke="none"/>
        <path d="M 1.000004053115845 1.000001907348633 L 1.000004053115845 19.84166145324707 L 2.346864223480225 19.84166145324707 L 2.346864223480225 1.000001907348633 L 1.000004053115845 1.000001907348633 M 4.053115844726563e-06 1.9073486328125e-06 L 3.346864223480225 1.9073486328125e-06 L 3.346864223480225 20.84166145324707 L 4.053115844726563e-06 20.84166145324707 L 4.053115844726563e-06 1.9073486328125e-06 Z" stroke="none" fill="rgba(56,102,148,0.95)"/>
      </g>
      <g id="Path_30" data-name="Path 30" transform="translate(1315.075 1251.665)" fill="rgba(56,102,148,0.95)">
        <path d="M0,0H3.347V24.189H0Z" stroke="none"/>
        <path d="M 1.000004053115845 0.9999961853027344 L 1.000004053115845 23.18853569030762 L 2.346864223480225 23.18853569030762 L 2.346864223480225 0.9999961853027344 L 1.000004053115845 0.9999961853027344 M 4.053115844726563e-06 -3.814697265625e-06 L 3.346864223480225 -3.814697265625e-06 L 3.346864223480225 24.18853569030762 L 4.053115844726563e-06 24.18853569030762 L 4.053115844726563e-06 -3.814697265625e-06 Z" stroke="none" fill="rgba(56,102,148,0.95)"/>
      </g>
      <g id="Rectangle_137" data-name="Rectangle 137" transform="translate(1320.653 1248.318)" fill="rgba(56,102,148,0.95)" stroke="rgba(56,102,148,0.95)" stroke-width="1">
        <rect width="3.347" height="27.535" stroke="none"/>
        <rect x="0.5" y="0.5" width="2.347" height="26.535" fill="none"/>
      </g>
    </g>
    <path id="ic_attach_money_24px" d="M13.563,13.442c-3-.78-3.965-1.586-3.965-2.842,0-1.441,1.335-2.445,3.569-2.445,2.353,0,3.225,1.123,3.3,2.776h2.921a5.269,5.269,0,0,0-4.243-5.036V3H11.184V5.855C8.62,6.41,6.558,8.075,6.558,10.626c0,3.053,2.525,4.573,6.212,5.459,3.3.793,3.965,1.956,3.965,3.185,0,.912-.648,2.366-3.569,2.366-2.723,0-3.793-1.216-3.939-2.776H6.32c.159,2.895,2.326,4.52,4.864,5.062v2.868h3.965V23.95c2.577-.489,4.626-1.983,4.626-4.692C19.775,15.5,16.564,14.222,13.563,13.442Z" transform="translate(1363.847 1224.983)" fill="rgba(56,102,148,0.95)"/>
  </g>
</svg>
