<svg xmlns="http://www.w3.org/2000/svg" width="40" height="40" viewBox="0 0 40 40"><circle cx="20" cy="20" r="20" fill="#fff"/><g transform="translate(6.991 7.486)"><g transform="translate(20.3 14.844)"><circle cx="0.534" cy="0.534" r="0.534" fill="#47afc9"/></g><g transform="translate(18.163 12.708)"><path d="M365.338,265.541a2.671,2.671,0,1,0,0,5.342h4.808v-5.342Zm0,4.274a1.6,1.6,0,1,1,1.6-1.6A1.6,1.6,0,0,1,365.338,269.815Z" transform="translate(-362.667 -265.541)" fill="#47afc9"/></g><g transform="translate(0 6.298)"><path d="M20.834,142.882h4.808v-1.6A3.744,3.744,0,0,0,21.9,137.54H3.739A3.744,3.744,0,0,0,0,141.279v10.684A3.744,3.744,0,0,0,3.739,155.7H21.9a3.744,3.744,0,0,0,3.739-3.739v-1.6H20.834a3.739,3.739,0,0,1,0-7.479Z" transform="translate(0 -137.54)" fill="#47afc9"/></g><g transform="translate(21.411 3.331)"><path d="M427.52,78.3l.973,1.947a4.763,4.763,0,0,1,2.663,1.152A5.893,5.893,0,0,0,427.52,78.3Z" transform="translate(-427.52 -78.298)" fill="#47afc9"/></g><g transform="translate(0.579 3.092)"><path d="M16.859,73.541a5.878,5.878,0,0,0-5.3,3.35,4.753,4.753,0,0,1,2.664-1.163l4.062-2.187Z" transform="translate(-11.562 -73.541)" fill="#47afc9"/></g><g transform="translate(5.589 0)"><path d="M123.375,11.969a3.724,3.724,0,0,0-2.9.272L111.6,17.022h7.447l6.291-3.571A3.691,3.691,0,0,0,123.375,11.969Z" transform="translate(-111.595 -11.793)" fill="#47afc9"/></g><g transform="translate(15.201 2.592)"><g transform="translate(0 0)"><path d="M308.176,63.557l-4.645,2.637h5.963Z" transform="translate(-303.531 -63.557)" fill="#47afc9"/></g></g></g></svg>